PathFileType	4	(X/Y/Z)	C:/Users/beibeiliu/ov580/test_trc\sequence.4_training_dense_left.trc
DataRate	CameraRate	NumFrames	NumMarkers	Units	OrigDataRate	OrigDataStartFrame	OrigNumFrames
120	120	22	19	mm	120	55	82
Frame#	Time	ThumbCMC			ThumbMCP			ThumbIP			ThumbTip			IndexMCP			IndexPIP			IndexTip			MiddleMCP			MiddlePIP			MiddleTip			RingMCP			RingPIP			RingTip			PinkyMCP			PinkyPIP			PinkyTip			BackHand1			BackHand2			BackHand3	
		X0	Y0	Z0	X1	Y1	Z1	X2	Y2	Z2	X3	Y3	Z3	X4	Y4	Z4	X5	Y5	Z5	X6	Y6	Z6	X7	Y7	Z7	X8	Y8	Z8	X9	Y9	Z9	X10	Y10	Z10	X11	Y11	Z11	X12	Y12	Z12	X13	Y13	Z13	X14	Y14	Z14	X15	Y15	Z15	X16	Y16	Z16	X17	Y17	Z17	X18	Y18	Z18	
54	0.45	-160.831	96.5367	92.403	-133.411	88.977	85.4969	-118.522	69.4148	72.7997	-121.615	45.2315	71.7426	-128.536	70.864	43.7869	-100.982	61.3109	41.662	-82.5381	54.7269	49.3984	-128.377	47.6813	49.936	-103.9	43.827	69.3928	-111.47	51.6052	98.7961	-136.054	34.2912	65.9269	-123.173	38.1271	91.7621	-139.464	54.8733	102.659	-143.176	26.3395	77.149	-134.878	36.4598	96.8358	-151.875	54.0064	102.538	-184.038	51.995	67.6728	-201.694	61.3092	88.0088	-180.713	83.5602	72.7674	
55	0.458333	-170.038	98.5437	91.3049	-137.979	102.04	82.8031	-121.32	87.0575	75.0246	-108.603	63.228	73.7379	-133.113	82.7241	42.2832	-105.481	83.099	38.4983	-81.518	84.0057	42.95	-123.164	65.4709	48.515	-97.0704	70.1027	65.9212	-106.431	72.6002	94.492	-126.466	51.6868	64.8504	-113.488	61.3269	92.4783	-134.968	70.039	102.611	-129.514	37.6674	78.9944	-122.508	53.3653	95.6781	-148.942	63.5093	104.756	-175.481	52.3868	70.4506	-194.98	57.0458	86.1309	-187.494	78.9606	72.0965	
56	0.466667	-175.481	101.18	86.126	-144.682	113.178	82.4745	-120.697	107.147	75.7642	-102.65	89.3318	77.1427	-139.984	92.1734	34.487	-117.561	99.8238	27.8005	-96.562	107.472	26.5762	-124.753	76.0352	40.2437	-102.266	87.7559	56.8286	-119.62	90.4519	83.5573	-122.85	64.2834	61.4532	-111.766	80.1762	84.9221	-136.587	84.1734	95.5786	-124.595	52.4191	74.8282	-116.934	70.335	90.7353	-143.108	74.1864	102.056	-166.2	47.6021	68.9177	-190.26	47.8475	90.0495	-185.309	75.5229	69.4626	
57	0.475	-184.086	94.9542	85.659	-157.942	112.456	76.2434	-131.961	108.89	67.248	-112.623	99.556	67.6455	-149.364	88.72	26.6409	-130.165	95.3938	15.6615	-111.982	108.034	7.53329	-130.658	75.1381	34.2299	-110.686	93.3018	41.7673	-129.904	98.9018	71.5842	-121.075	72.5766	53.6812	-114.769	92.6346	70.4043	-134.639	92.5016	86.321	-120.085	60.243	71.2875	-117.834	81.9012	87.0868	-141.188	82.7852	97.6934	-162.344	46.2307	73.7446	-184.322	46.0687	90.6882	-188.074	64.6139	71.504	
58	0.483333	-194.798	84.5198	80.0664	-171.067	101.437	65.0724	-150.353	104.654	54.1935	-124.533	96.8159	51.7928	-163.851	65.4206	23.7897	-148.228	70.6489	6.18181	-129.833	81.4812	-11.5622	-141.012	60.7844	31.0704	-124.452	87.6817	32.9803	-141.778	95.0693	58.5468	-129.622	61.1765	47.8876	-123.011	87.8061	57.5971	-140.879	90.6734	74.5831	-122.148	57.1756	65.7249	-123.204	81.1569	71.8359	-146.971	80.1745	87.3607	-163.814	38.7008	72.3019	-179.694	35.6653	98.0449	-189.345	48.2836	72.5581	
59	0.491667	-205.783	65.5278	76.687	-185.381	79.7759	54.1993	-165.526	81.1147	40.6941	-140.657	74.8208	39.6773	-178.556	29.2662	21.5172	-167.082	28.078	-0.158263	-152.944	29.8699	-13.858	-150.774	34.1012	27.3876	-139.981	58.72	19.2182	-152.126	73.6373	46.3828	-138.944	41.571	42.246	-138.675	69.2635	43.6949	-154.713	75.0973	66.6886	-132.835	40.0214	62.6903	-135.052	67.501	62.2885	-153.422	67.3372	74.6659	-167.223	20.9273	84.3419	-181.29	23.3068	105.2	-199.197	30.0029	76.9839	
60	0.5	-214.361	52.3608	76.4349	-196.193	59.673	50.1725	-175.035	56.406	30.7338	-154.123	49.5359	31.038	-194.175	5.0309	37.0373	-184.146	-7.82121	16.7909	-170.362	-14.9527	-5.99601	-169.242	8.81341	30.8198	-154.439	28.9588	17.9413	-169.95	53.2478	39.1112	-152.202	17.8969	44.1289	-147.562	45.2415	38.6464	-163.535	57.7023	55.0706	-144.335	21.6722	60.8122	-142.805	45.5276	54.1058	-162.379	54.9431	68.3982	-177.417	9.21676	86.1669	-190.245	20.2632	112.311	-203.091	18.5536	87.3788	
61	0.508333	-219.431	48.1029	76.3011	-202.941	51.2069	47.6729	-186.344	44.1953	30.2602	-162.345	31.9662	24.2703	-208.623	-7.49559	46.5337	-204.252	-25.3461	27.7561	-200.969	-37.5503	7.32734	-183.51	-6.35639	35.4554	-168.642	13.1902	20.7684	-178.768	37.2862	39.0965	-164.339	1.39995	49.3779	-159.949	25.8805	35.5062	-169.108	44.5572	55.3737	-151.863	5.9873	61.6492	-153.596	28.9143	50.6887	-171.447	38.6032	64.7913	-186.288	2.344	91.7932	-195.431	17.2931	113.654	-218.407	16.4041	93.2999	
62	0.516667	-221.08	53.0018	78.529	-205.818	48.7347	46.616	-193.22	40.2018	32.63	-173.174	22.2636	24.8872	-227.217	-7.06737	47.0957	-228.8	-22.2444	32.4604	-226.656	-40.1964	13.4196	-201.415	-9.39847	39.2931	-184.939	7.08048	19.307	-183.335	31.0922	39.4057	-179.875	-5.76937	47.6903	-172.111	14.9969	33.4968	-176.323	37.3495	54.125	-168.155	-4.20873	62.2301	-162.476	17.1255	49.3977	-176.525	34.3862	65.8391	-201.732	4.27838	97.3494	-204.701	20.4655	114.999	-224.123	21.2995	94.9755	
63	0.525	-219.812	59.2849	79.3689	-208.401	55.5275	47.9825	-198.505	41.549	31.8531	-183.165	21.5535	24.9934	-242.264	6.70374	47.2263	-249.213	-9.75899	30.001	-255.316	-23.8905	12.8492	-216.711	-4.85694	37.553	-199.836	5.56607	18.1311	-193.283	32.3325	36.2591	-198.541	-4.78592	48.7371	-183.386	14.3447	32.9942	-180.098	33.8384	51.7339	-187.184	-6.35477	61.5246	-172.647	11.1404	47.6474	-183.916	31.6142	63.0327	-213.208	8.86557	94.7496	-208.514	21.2984	119.065	-232.41	29.1366	94.4214	
64	0.533333	-218.519	63.5353	81.0361	-206.837	63.5479	50.1549	-202.288	44.6772	27.1263	-192.556	24.4096	24.2719	-255.043	22.3799	45.3957	-266.622	11.9053	27.1841	-275.37	5.69612	11.7146	-234.943	8.1413	35.5463	-211.283	13.934	16.6513	-198.083	34.7298	37.0763	-212.37	-0.99429	43.497	-193.766	15.2117	31.1769	-188.318	35.1864	51.5486	-202.425	-2.27933	56.3283	-185.43	12.427	44.7399	-183.709	31.2224	62.4871	-223.436	12.8201	93.7135	-215.924	26.1431	115.44	-234.856	40.5898	94.4172	
65	0.541667	-213.049	70.779	81.387	-205.238	64.6298	47.4064	-201.367	52.5865	31.2515	-200.918	28.5151	20.2754	-258.418	48.6131	46.8382	-272.958	41.2484	24.7882	-286.068	37.5215	5.55924	-246.17	26.44	32.7417	-222.101	23.7671	14.7035	-201.942	35.7231	33.7758	-227.635	14.9912	38.5462	-203.438	23.449	29.8829	-192.369	35.1844	51.4212	-216.06	4.92222	49.5386	-195.257	13.5619	43.6264	-194.319	35.4597	59.6899	-232.349	23.3394	92.031	-225.589	28.0554	113.065	-237.097	49.7267	96.5006	
66	0.55	-201.941	77.765	79.7794	-193.322	72.2185	47.5917	-197.747	57.0749	27.0371	-203.281	34.4299	14.4425	-250.571	74.9455	42.7403	-263.866	75.7356	20.7539	-274.506	77.5325	-0.590898	-247.486	47.0033	28.4095	-228.174	43.7282	8.05007	-202.751	45.6224	33.2199	-233.692	29.9149	34.2151	-207.688	28.537	25.8875	-194.542	38.8735	46.3175	-229.286	15.472	48.1483	-206.318	21.5068	38.7418	-194.849	32.7049	59.1392	-239.174	39.3975	88.0942	-228.64	39.6872	108.308	-233.347	65.8128	94.3184	
67	0.558333	-187.267	83.9719	77.9486	-178.585	73.5691	47.2965	-185.259	62.0139	23.3948	-200.901	41.4337	15.5947	-231.896	94.3098	35.4403	-238.326	101.082	13.6535	-244.975	107.018	-7.64714	-234.942	69.1227	24.2799	-215.285	56.8347	5.87656	-195.856	50.8409	29.8717	-229.854	49.1246	29.3633	-202.867	40.6751	24.8013	-192.242	45.2124	48.269	-228.307	32.626	38.7996	-204.041	30.3427	37.4742	-196.886	41.96	60.1766	-237.767	58.6847	81.8175	-227.011	57.1328	102.135	-221.726	81.756	88.632	
68	0.566667	-172.083	84.8601	77.5221	-163.221	70.6292	46.7513	-172.183	60.0308	28.2139	-188.752	41.9333	14.439	-208.765	104.95	25.5312	-213.393	108.956	0.552562	-216.326	108.681	-18.8417	-218.046	79.7511	18.0733	-201.968	61.1666	3.40108	-183.271	54.2372	28.8962	-217.954	61.2844	26.5827	-195.088	44.7371	23.5195	-185.754	43.8954	48.2625	-223.736	42.6479	36.9173	-198.384	36.9101	36.5213	-189.961	47.6134	57.5207	-227.713	74.6144	72.61	-223.069	71.0038	99.6018	-208.171	91.3562	82.2176	
69	0.575	-161.883	80.9332	78.7221	-153.891	61.586	48.8954	-160.465	48.7747	29.4492	-177.838	32.6558	19.5234	-183.634	100.307	17.9238	-186.748	95.7896	-6.94036	-187.553	91.7197	-26.8323	-198.966	73.7777	12.5335	-185.95	51.5741	5.1881	-171.599	47.801	36.4584	-205.586	55.8708	25.8065	-186.655	37.2148	26.9471	-176.204	43.5978	52.7916	-213.08	44.3188	36.6696	-190.154	34.6596	40.757	-181.847	42.9114	62.0082	-216.217	81.2516	72.035	-211.662	79.842	99.2368	-192.567	96.0658	78.4746	
70	0.583333	-147.512	73.8653	78.5387	-145.957	49.6555	56.6778	-151.836	32.9212	37.1703	-171.963	19.4535	27.071	-165.982	84.1983	14.662	-164.961	77.8262	-4.26792	-168.026	64.9937	-28.9236	-181.221	63.6967	14.7975	-173.207	36.3485	11.1302	-159.821	36.2699	40.3699	-194.74	47.2598	28.099	-173.731	27.6229	36.8792	-169.575	38.3026	63.4878	-203.413	36.9137	40.2071	-186.408	23.6221	49.5845	-175.074	42.5857	68.6456	-204.36	79.5763	65.9485	-196.135	84.7232	93.8674	-177.638	93.2064	75.0932	
71	0.591667	-142.503	67.481	76.2352	-136.539	40.0222	61.5744	-147.77	24.4904	43.4253	-165.359	7.79832	32.6803	-162.432	69.9672	15.3062	-159.138	59.7583	-6.82174	-158.505	45.9718	-26.5699	-175.763	53.6373	15.9146	-164.143	26.0945	15.0097	-155.294	28.5336	48.3564	-185.038	37.5232	29.1542	-172.309	18.9836	37.842	-164.619	30.2541	67.4983	-200.065	34.6395	45.0762	-179.849	19.4752	53.5557	-168.813	36.6918	72.6864	-196.677	74.7059	63.1675	-192.719	82.5297	90.6878	-168.016	89.4725	70.9115	
72	0.6	-139.639	65.3123	81.4592	-135.241	37.1611	62.9539	-140.39	18.9485	44.8695	-160.723	5.37964	35.3602	-160.273	64.8424	15.2658	-159.185	52.9071	-4.58547	-154.13	37.715	-21.3828	-175.996	45.3728	15.5716	-165.977	17.9893	19.199	-156.995	19.6518	48.3477	-186.058	32.8621	30.6869	-168.822	13.1697	40.5188	-159.967	23.8479	66.6164	-195.842	31.7956	44.943	-179.956	14.015	53.9988	-168.367	27.5685	75.7069	-197.155	72.2696	66.1192	-190.674	81.4148	93.2394	-169.737	85.3323	73.0673	
73	0.608333	-142.664	65.2036	81.7543	-138.27	38.8762	60.7133	-140.595	19.503	42.5368	-150.618	2.07049	33.4693	-160.034	63.0552	17.1022	-156.698	48.6394	-5.33116	-155.742	26.2413	-19.18	-176.04	47.3362	16.1291	-169.795	19.8196	11.2322	-157.442	12.2058	43.9735	-188.053	35.3405	29.3277	-171.064	11.5851	35.5209	-161.901	15.1054	61.9584	-197.832	26.4269	42.826	-183.085	9.58354	52.0683	-167.987	25.0495	69.4178	-194.874	69.7303	63.8666	-196.254	75.8585	89.5654	-172.059	82.5397	70.9995	
74	0.616667	-145.914	64.519	80.6122	-133.461	40.2167	60.7149	-136.989	22.9074	40.6763	-140.838	6.16319	28.5664	-161.591	59.0905	16.7098	-159.66	42.5295	-3.00351	-152.015	20.8501	-14.6844	-179.683	48.1928	12.7829	-174.622	21.9133	4.77834	-159.222	2.8977	24.015	-191.714	39.8883	27.2933	-180.606	10.0189	24.0785	-168.174	4.70974	43.1135	-205.899	29.2263	41.8789	-191.784	11.8839	39.6772	-171.927	13.9306	57.7891	-198.745	66.6721	68.8838	-192.899	78.4427	91.3385	-171.364	82.0576	72.1706	
75	0.625	-142.554	62.3052	80.8107	-133.989	40.3054	61.2796	-131.046	27.1166	42.6721	-134.038	10.592	27.4776	-163.696	55.1985	17.4009	-159.58	34.9051	-1.89963	-150.51	14.9463	-11.2503	-181.27	49.4338	14.4817	-180.13	24.5473	-0.967679	-166.554	-4.40194	9.19131	-198.333	39.6865	25.8985	-188.265	17.7581	12.2481	-174.301	-4.48302	27.3535	-208.155	33.8156	42.7552	-203.198	12.0395	32.0183	-178.853	3.35378	41.1856	-195.037	65.7647	64.3816	-192.189	75.1578	93.9696	-173.252	79.6574	75.7757	
